<svg width="37" height="37" viewBox="0 0 37 37" fill="none" xmlns="http://www.w3.org/2000/svg">
<path d="M28.1107 6.91412C24.7978 3.60122 19.4029 3.60122 16.0935 6.91412L6.91447 16.0861C6.85468 16.1459 6.82303 16.2268 6.82303 16.3112C6.82303 16.3956 6.85468 16.4765 6.91447 16.5363L8.2122 17.834C8.27152 17.8931 8.35181 17.9263 8.43552 17.9263C8.51923 17.9263 8.59952 17.8931 8.65884 17.834L17.8379 8.66201C18.9774 7.52254 20.4931 6.89654 22.1039 6.89654C23.7146 6.89654 25.2304 7.52254 26.3663 8.66201C27.5058 9.80148 28.1318 11.3173 28.1318 12.9245C28.1318 14.5352 27.5058 16.0475 26.3663 17.1869L17.0114 26.5383L15.4957 28.0541C14.0784 29.4714 11.7748 29.4714 10.3575 28.0541C9.6717 27.3683 9.2954 26.4574 9.2954 25.4868C9.2954 24.5161 9.6717 23.6052 10.3575 22.9194L19.6385 13.6419C19.8742 13.4098 20.1837 13.2797 20.5142 13.2797H20.5178C20.8484 13.2797 21.1543 13.4098 21.3864 13.6419C21.6221 13.8775 21.7487 14.187 21.7487 14.5176C21.7487 14.8447 21.6185 15.1542 21.3864 15.3863L13.8005 22.9652C13.7407 23.025 13.7091 23.1058 13.7091 23.1902C13.7091 23.2747 13.7407 23.3555 13.8005 23.4153L15.0983 24.7131C15.1576 24.7721 15.2379 24.8053 15.3216 24.8053C15.4053 24.8053 15.4856 24.7721 15.5449 24.7131L23.1273 17.1307C23.8272 16.4308 24.2105 15.5023 24.2105 14.5141C24.2105 13.5259 23.8236 12.5939 23.1273 11.8975C21.6819 10.4521 19.3326 10.4556 17.8871 11.8975L16.9868 12.8014L8.60961 21.1751C8.04103 21.7403 7.59034 22.4128 7.28366 23.1535C6.97697 23.8943 6.8204 24.6886 6.82303 25.4903C6.82303 27.1186 7.45959 28.6484 8.60961 29.7985C9.80183 30.9872 11.3633 31.5815 12.9248 31.5815C14.4863 31.5815 16.0478 30.9872 17.2365 29.7985L28.1107 18.9313C29.7109 17.3276 30.5971 15.1929 30.5971 12.9245C30.6007 10.6526 29.7144 8.51782 28.1107 6.91412Z" fill="#333333"/>
</svg>
