<svg width="60" height="60" viewBox="0 0 60 60" fill="none" xmlns="http://www.w3.org/2000/svg">
<rect opacity="0.2" width="60" height="60" rx="30" fill="black"/>
<path d="M31.9825 17.9966C32.4726 17.9966 32.9542 18.1246 33.3795 18.368C33.8049 18.6113 34.1592 18.9616 34.4075 19.3841L35.425 21.1179H38.0138C39.091 21.1179 40.1241 21.5457 40.886 22.3073C41.6478 23.0689 42.076 24.1019 42.0763 25.1791V37.0541C42.0763 37.5876 41.9712 38.1159 41.7671 38.6088C41.5629 39.1016 41.2637 39.5495 40.8864 39.9267C40.5092 40.304 40.0613 40.6032 39.5684 40.8074C39.0756 41.0115 38.5473 41.1166 38.0138 41.1166H21.1388C20.0614 41.1166 19.028 40.6886 18.2662 39.9267C17.5043 39.1649 17.0763 38.1316 17.0763 37.0541V25.1791C17.0763 24.1017 17.5043 23.0684 18.2662 22.3065C19.028 21.5446 20.0614 21.1166 21.1388 21.1166H23.7388L24.8325 19.3366C25.084 18.9269 25.4363 18.5885 25.8558 18.3537C26.2754 18.1188 26.748 17.9955 27.2288 17.9954H31.9825V17.9966ZM31.9825 19.8716H27.2288C27.092 19.8717 26.9569 19.9018 26.8329 19.9596C26.709 20.0175 26.5992 20.1018 26.5113 20.2066L26.43 20.3191L25.0638 22.5441C24.98 22.6808 24.8626 22.7937 24.7228 22.872C24.5829 22.9503 24.4253 22.9915 24.265 22.9916H21.14C20.8527 22.9914 20.5681 23.0479 20.3025 23.1578C20.037 23.2676 19.7957 23.4287 19.5924 23.6319C19.3892 23.835 19.2279 24.0762 19.1179 24.3417C19.0079 24.6072 18.9513 24.8917 18.9513 25.1791V37.0541C18.9513 38.2616 19.9313 39.2416 21.1388 39.2416H38.0138C38.594 39.2416 39.1504 39.0111 39.5606 38.6009C39.9708 38.1907 40.2013 37.6343 40.2013 37.0541V25.1791C40.2013 24.5989 39.9708 24.0426 39.5606 23.6323C39.1504 23.2221 38.594 22.9916 38.0138 22.9916H34.8888C34.7254 22.9917 34.5648 22.9491 34.4229 22.8679C34.281 22.7868 34.1628 22.67 34.08 22.5291L32.79 20.3329C32.7074 20.1922 32.5894 20.0755 32.4477 19.9943C32.3061 19.9132 32.1458 19.8705 31.9825 19.8704V19.8716ZM29.5763 24.8666C31.0681 24.8666 32.4989 25.4592 33.5538 26.5141C34.6087 27.569 35.2013 28.9998 35.2013 30.4916C35.2013 31.9835 34.6087 33.4142 33.5538 34.4691C32.4989 35.524 31.0681 36.1166 29.5763 36.1166C28.0845 36.1166 26.6537 35.524 25.5988 34.4691C24.5439 33.4142 23.9513 31.9835 23.9513 30.4916C23.9513 28.9998 24.5439 27.569 25.5988 26.5141C26.6537 25.4592 28.0845 24.8666 29.5763 24.8666V24.8666ZM29.5763 26.7416C29.0838 26.7416 28.5962 26.8386 28.1412 27.0271C27.6863 27.2155 27.2729 27.4917 26.9246 27.84C26.5764 28.1882 26.3002 28.6016 26.1117 29.0565C25.9233 29.5115 25.8263 29.9992 25.8263 30.4916C25.8263 30.9841 25.9233 31.4717 26.1117 31.9267C26.3002 32.3816 26.5764 32.795 26.9246 33.1433C27.2729 33.4915 27.6863 33.7677 28.1412 33.9562C28.5962 34.1446 29.0838 34.2416 29.5763 34.2416C30.5709 34.2416 31.5247 33.8465 32.2279 33.1433C32.9312 32.44 33.3263 31.4862 33.3263 30.4916C33.3263 29.497 32.9312 28.5432 32.2279 27.84C31.5247 27.1367 30.5709 26.7416 29.5763 26.7416V26.7416Z" fill="white"/>
</svg>
