<svg width="33" height="33" viewBox="0 0 33 33" fill="none" xmlns="http://www.w3.org/2000/svg">
<path d="M19.0556 3.39955C19.5878 3.39951 20.1108 3.53854 20.5728 3.80286C21.0348 4.06719 21.4197 4.44764 21.6894 4.90652L22.7945 6.78955H25.6061C26.7761 6.78955 27.8982 7.25423 28.7256 8.0814C29.553 8.90857 30.018 10.0305 30.0184 11.2005V24.0979C30.0184 24.6774 29.9043 25.2511 29.6825 25.7865C29.4608 26.3218 29.1358 26.8082 28.7261 27.2179C28.3164 27.6276 27.8299 27.9526 27.2946 28.1744C26.7593 28.3961 26.1855 28.5102 25.6061 28.5102H7.27814C6.10792 28.5102 4.98564 28.0454 4.15817 27.2179C3.33071 26.3904 2.86584 25.2682 2.86584 24.0979V11.2005C2.86584 10.0303 3.33071 8.90799 4.15817 8.08052C4.98564 7.25305 6.10792 6.78819 7.27814 6.78819H10.102L11.2899 4.85493C11.5631 4.40992 11.9457 4.04236 12.4013 3.78734C12.857 3.53231 13.3704 3.39833 13.8925 3.39819H19.0556V3.39955ZM19.0556 5.43599H13.8925C13.7439 5.43611 13.5972 5.46875 13.4626 5.5316C13.3279 5.59446 13.2087 5.68601 13.1132 5.79984L13.025 5.92202L11.5411 8.3386C11.4501 8.48702 11.3226 8.60963 11.1707 8.69472C11.0188 8.77981 10.8477 8.82454 10.6736 8.82463H7.27949C6.96738 8.82445 6.65829 8.88578 6.36988 9.00509C6.08147 9.12441 5.8194 9.29939 5.59864 9.52002C5.37787 9.74066 5.20275 10.0026 5.08327 10.291C4.96378 10.5793 4.90229 10.8884 4.90229 11.2005V24.0979C4.90229 25.4094 5.96667 26.4738 7.27814 26.4738H25.6061C26.2362 26.4738 26.8405 26.2235 27.2861 25.7779C27.7316 25.3324 27.982 24.7281 27.982 24.0979V11.2005C27.982 10.5704 27.7316 9.96606 27.2861 9.5205C26.8405 9.07494 26.2362 8.82463 25.6061 8.82463H22.212C22.0345 8.82473 21.8601 8.77842 21.706 8.69031C21.552 8.60219 21.4236 8.47533 21.3337 8.32231L19.9326 5.93696C19.8428 5.78413 19.7146 5.6574 19.5608 5.5693C19.407 5.4812 19.2328 5.43478 19.0556 5.43463V5.43599ZM16.4421 10.8611C18.0624 10.8611 19.6163 11.5047 20.7621 12.6505C21.9078 13.7962 22.5514 15.3501 22.5514 16.9704C22.5514 18.5907 21.9078 20.1446 20.7621 21.2903C19.6163 22.4361 18.0624 23.0797 16.4421 23.0797C14.8218 23.0797 13.2679 22.4361 12.1222 21.2903C10.9765 20.1446 10.3328 18.5907 10.3328 16.9704C10.3328 15.3501 10.9765 13.7962 12.1222 12.6505C13.2679 11.5047 14.8218 10.8611 16.4421 10.8611ZM16.4421 12.8975C15.9073 12.8975 15.3776 13.0029 14.8835 13.2075C14.3894 13.4122 13.9404 13.7122 13.5622 14.0904C13.184 14.4686 12.884 14.9176 12.6793 15.4118C12.4746 15.9059 12.3692 16.4355 12.3692 16.9704C12.3692 17.5053 12.4746 18.0349 12.6793 18.529C12.884 19.0232 13.184 19.4722 13.5622 19.8504C13.9404 20.2286 14.3894 20.5286 14.8835 20.7333C15.3776 20.9379 15.9073 21.0433 16.4421 21.0433C17.5223 21.0433 18.5583 20.6142 19.3221 19.8504C20.0859 19.0865 20.515 18.0506 20.515 16.9704C20.515 15.8902 20.0859 14.8542 19.3221 14.0904C18.5583 13.3266 17.5223 12.8975 16.4421 12.8975Z" fill="#333333"/>
</svg>
