<svg width="75" height="75" viewBox="0 0 75 75" fill="none" xmlns="http://www.w3.org/2000/svg">
<g clip-path="url(#clip0_6_20)">
<rect x="4" y="4" width="67" height="67" rx="33.5" fill="#8704B5" stroke="#9221BA" stroke-width="8"/>
<g clip-path="url(#clip1_6_20)">
<path d="M51.3233 36.493L28.0685 25.1481C27.845 25.0392 27.5975 24.9889 27.3493 25.002C27.101 25.0152 26.8602 25.0913 26.6495 25.2231C26.4387 25.355 26.265 25.5383 26.1447 25.7559C26.0243 25.9734 25.9613 26.218 25.9615 26.4666V26.5086C25.9617 26.7052 25.9859 26.9009 26.0337 27.0916L28.2644 36.0146C28.2943 36.1335 28.3599 36.2404 28.4522 36.321C28.5446 36.4015 28.6594 36.4519 28.7813 36.4654L38.5853 37.5555C38.7485 37.5751 38.8988 37.6538 39.0078 37.7768C39.1168 37.8997 39.177 38.0583 39.177 38.2226C39.177 38.3869 39.1168 38.5455 39.0078 38.6684C38.8988 38.7913 38.7485 38.87 38.5853 38.8896L28.7813 39.9798C28.6594 39.9933 28.5446 40.0436 28.4522 40.1242C28.3599 40.2048 28.2943 40.3116 28.2644 40.4305L26.0337 49.3524C25.9859 49.543 25.9617 49.7388 25.9615 49.9353V49.9774C25.9615 50.2259 26.0247 50.4703 26.1451 50.6877C26.2655 50.905 26.4393 51.0882 26.65 51.2199C26.8607 51.3517 27.1014 51.4277 27.3496 51.4407C27.5977 51.4538 27.8451 51.4036 28.0685 51.2947L51.3221 39.9497C51.646 39.7918 51.9189 39.546 52.1098 39.2404C52.3008 38.9348 52.402 38.5817 52.402 38.2214C52.402 37.8611 52.3008 37.508 52.1098 37.2024C51.9189 36.8968 51.6472 36.651 51.3233 36.493Z" fill="white"/>
</g>
</g>
<defs>
<clipPath id="clip0_6_20">
<rect width="75" height="75" rx="37.5" fill="white"/>
</clipPath>
<clipPath id="clip1_6_20">
<rect width="28.8462" height="28.8462" fill="white" transform="translate(23.0768 24.0383)"/>
</clipPath>
</defs>
</svg>
